<svg width="32" height="32" viewBox="0 0 32 32" fill="none" xmlns="http://www.w3.org/2000/svg">
<g clip-path="url(#clip0_3151_67493)">
<rect width="32" height="32" rx="16" fill="#90A93F"/>
<path d="M27.8749 30.9219C27.7954 31.0597 27.6809 31.1741 27.5431 31.2536C27.4053 31.3332 27.249 31.375 27.0899 31.375H5.33989C5.18089 31.3748 5.02473 31.3328 4.88709 31.2532C4.74945 31.1736 4.63518 31.0592 4.55575 30.9215C4.47632 30.7837 4.43453 30.6275 4.43457 30.4685C4.43461 30.3095 4.47648 30.1533 4.55598 30.0156C6.28126 27.0329 8.93997 24.8942 12.0427 23.8803C10.508 22.9667 9.31555 21.5744 8.6486 19.9175C7.98164 18.2606 7.87703 16.4305 8.35084 14.7083C8.82464 12.9862 9.85066 11.4672 11.2713 10.3846C12.692 9.30198 14.4288 8.71567 16.2149 8.71567C18.001 8.71567 19.7378 9.30198 21.1585 10.3846C22.5791 11.4672 23.6051 12.9862 24.0789 14.7083C24.5527 16.4305 24.4481 18.2606 23.7812 19.9175C23.1142 21.5744 21.9218 22.9667 20.387 23.8803C23.4898 24.8942 26.1485 27.0329 27.8738 30.0156C27.9535 30.1533 27.9956 30.3095 27.9958 30.4686C27.996 30.6277 27.9543 30.784 27.8749 30.9219Z" fill="white"/>
</g>
<rect x="0.321429" y="0.321429" width="31.3571" height="31.3571" rx="15.6786" stroke="#BFBFBF" stroke-width="0.642857"/>
<defs>
<clipPath id="clip0_3151_67493">
<rect width="32" height="32" rx="16" fill="white"/>
</clipPath>
</defs>
</svg>
