<svg width="320" height="32" viewBox="0 0 320 32" fill="none" xmlns="http://www.w3.org/2000/svg">
<path d="M17.9638 14.2101C19.2287 13.1978 20.5358 10.7102 20.5358 8.09555C20.5358 4.09016 17.4156 0.758789 11.5542 0.758789H2.78303C1.26497 0.758789 0 2.02383 0 3.54156V27.492C0 29.0521 1.26503 30.2754 2.78303 30.2754C4.34311 30.2754 5.6084 29.0521 5.6084 27.492V17.625H11.7226C14.379 17.625 16.6982 19.0169 16.6982 21.1672C16.6982 22.4745 16.2344 23.2756 16.0657 24.0345C15.7283 25.3419 16.0657 26.3958 17.3307 27.0707C18.68 27.7872 20.3668 27.3658 21.1257 26.0167C21.9268 24.6248 22.3063 23.0647 22.3063 21.1249C22.3063 18.0894 20.3668 15.3483 17.9632 14.2096L17.9638 14.2101ZM11.1328 12.65H5.60905V5.69227H11.1328C14.0422 5.69227 15.3495 7.37873 15.3495 9.19217C15.3495 11.3001 13.5364 12.65 11.1328 12.65Z" fill="white"/>
<path d="M11.1756 30.2793C9.61551 30.2793 8.39258 29.0143 8.39258 27.496C8.39258 25.9359 9.61551 24.6709 11.1756 24.6709C12.7359 24.6709 13.9586 25.9359 13.9586 27.496C13.9586 29.0143 12.7359 30.2793 11.1756 30.2793Z" fill="white"/>
<path d="M52.5748 18.2192L45.0694 2.36415C44.6056 1.39424 43.5934 0.761719 42.5394 0.761719C41.4431 0.761719 40.4732 1.39423 40.0094 2.36415L28.6243 26.2728C27.9918 27.6642 28.5822 29.3512 29.9736 30.0255C31.365 30.658 33.0097 30.0678 33.6843 28.6764L36.3409 23.1103H50.5086C51.4785 23.1103 52.3217 22.6042 52.8279 21.8454C53.7978 20.4117 53.0386 19.1891 52.5748 18.2192ZM38.6175 18.3032L42.5391 10.0385L46.5028 18.3032H38.6175Z" fill="white"/>
<path d="M56.7038 27.493C56.7038 29.0113 55.4388 30.2764 53.8787 30.2764C52.3607 30.2764 51.0957 29.0113 51.0957 27.493C51.0957 25.9329 52.3607 24.668 53.8787 24.668C55.4388 24.668 56.7038 25.9329 56.7038 27.493Z" fill="white"/>
<path d="M77.2383 0.00146484C80.0633 0.00146484 84.0267 0.549885 87.2321 3.16448C88.4124 4.13382 88.4971 5.82086 87.6112 7.08583C86.7683 8.26617 85.0813 8.0975 83.7323 7.38092C81.9612 6.49563 79.895 5.60983 77.2385 5.60983C71.7565 5.60983 67.3289 10.0373 67.3289 15.5194C67.3289 21.0008 71.7564 25.4283 77.2385 25.4283C79.4311 25.4283 82.0034 24.754 83.8584 23.6995V17.8806C83.8584 16.3623 85.0811 15.0973 86.6412 15.0973C88.2018 15.0973 89.4245 16.3623 89.4245 17.8806V24.5005C89.4245 25.2594 89.4245 25.8502 89.1294 26.4826C88.8761 26.9882 88.4546 27.3679 87.9061 27.7476C85.1234 29.7291 80.9072 31.0365 77.2385 31.0365C68.6784 31.0365 61.7207 24.0788 61.7207 15.5193C61.7207 6.91739 68.6782 0.00146484 77.2383 0.00146484Z" fill="white"/>
<path d="M78.2919 15.0981C79.8096 15.0981 81.0746 16.3632 81.0746 17.8815C81.0746 19.4416 79.8096 20.7065 78.2919 20.7065C76.7318 20.7065 75.4668 19.4415 75.4668 17.8815C75.4668 16.3632 76.7318 15.0981 78.2919 15.0981Z" fill="white"/>
<path d="M124.653 24.249C126.255 25.1766 127.942 25.6405 130.008 25.8515C132.032 26.0619 132.876 27.0742 132.876 28.3815C132.876 29.7728 131.948 31.0378 129.334 31.0378C127.183 31.0378 125.032 30.574 122.882 29.6041C117.527 27.1165 113.816 21.7609 113.816 15.5207C113.816 6.91882 120.774 0.00292969 129.334 0.00292969C132.159 0.00292969 136.122 0.55135 139.327 3.16595C140.508 4.13528 140.592 5.82233 139.707 7.08729C138.948 8.22593 137.388 8.26764 135.828 7.4247C134.141 6.45479 131.99 5.61127 129.334 5.61127C123.852 5.61127 119.425 10.0387 119.425 15.5208C119.425 19.3158 121.491 22.5204 124.654 24.2495L124.653 24.249Z" fill="white"/>
<path d="M135.148 25.4258C135.148 23.9081 136.413 22.6431 137.932 22.6431C139.492 22.6431 140.757 23.9081 140.757 25.4258C140.757 26.9859 139.492 28.2509 137.932 28.2509C136.413 28.2509 135.148 26.9858 135.148 25.4258Z" fill="white"/>
<path d="M148.943 3.54156C148.943 2.02383 150.208 0.758789 151.727 0.758789C153.287 0.758789 154.552 2.02383 154.552 3.54156V13.24H166.696V11.9327C166.696 10.415 167.961 9.14995 169.521 9.14995C171.039 9.14995 172.304 10.415 172.304 11.9327V27.4924C172.304 29.0107 171.039 30.2757 169.521 30.2757C167.96 30.2757 166.696 29.0107 166.696 27.4924V18.5088H154.546V27.4904C154.546 29.0088 153.281 30.2738 151.721 30.2738C150.203 30.2738 148.938 29.0088 148.938 27.4904L148.943 3.54156Z" fill="white"/>
<path d="M166.695 3.54156C166.695 2.02383 167.96 0.758789 169.52 0.758789C171.039 0.758789 172.304 2.02383 172.304 3.54156C172.304 5.10165 171.039 6.3666 169.52 6.3666C167.96 6.3666 166.695 5.10158 166.695 3.54156Z" fill="white"/>
<path d="M204.77 18.2192L197.265 2.36415C196.801 1.39424 195.789 0.761719 194.735 0.761719C193.638 0.761719 192.669 1.39423 192.205 2.36415L180.82 26.2728C180.187 27.6642 180.778 29.3512 182.169 30.0255C183.56 30.658 185.205 30.0678 185.88 28.6764L188.536 23.1103H202.704C203.674 23.1103 204.517 22.6042 205.023 21.8454C205.993 20.4117 205.234 19.1891 204.77 18.2192ZM190.813 18.3032L194.734 10.0385L198.698 18.3032H190.813Z" fill="white"/>
<path d="M208.903 27.493C208.903 29.0113 207.638 30.2764 206.078 30.2764C204.56 30.2764 203.295 29.0113 203.295 27.493C203.295 25.9329 204.56 24.668 206.078 24.668C207.638 24.668 208.903 25.9329 208.903 27.493Z" fill="white"/>
<path d="M223.954 27.492C223.954 29.0104 222.731 30.2754 221.17 30.2754C219.61 30.2754 218.388 29.0104 218.388 27.492V6.36662H212.273C210.755 6.36662 209.49 5.10158 209.49 3.54156C209.49 2.02383 210.755 0.758789 212.273 0.758789H221.17C222.857 0.758789 223.954 2.02383 223.954 3.54156V27.492Z" fill="white"/>
<path d="M232.854 3.54156C232.854 5.10165 231.589 6.3666 230.071 6.3666C228.511 6.3666 227.246 5.10158 227.246 3.54156C227.246 2.02383 228.511 0.758789 230.071 0.758789C231.589 0.758789 232.854 2.02383 232.854 3.54156Z" fill="white"/>
<path d="M251.508 27.492C251.508 29.0104 250.286 30.2754 248.725 30.2754C247.165 30.2754 245.942 29.0104 245.942 27.492V6.36662H239.828C238.31 6.36662 237.045 5.10158 237.045 3.54156C237.045 2.02383 238.31 0.758789 239.828 0.758789H248.725C250.412 0.758789 251.508 2.02383 251.508 3.54156V27.492Z" fill="white"/>
<path d="M260.401 3.54156C260.401 5.10165 259.136 6.3666 257.618 6.3666C256.058 6.3666 254.793 5.10158 254.793 3.54156C254.793 2.02383 256.058 0.758789 257.618 0.758789C259.136 0.758789 260.401 2.02383 260.401 3.54156Z" fill="white"/>
<path d="M270.334 30.2798C268.816 30.2798 267.551 29.0148 267.551 27.4964V3.54594C267.551 2.0282 268.816 0.763184 270.334 0.763184H276.153C277.671 0.763184 278.936 2.0282 278.936 3.54594C278.936 5.10602 277.671 6.371 276.153 6.371H273.159V12.8229H282.942C284.502 12.8229 285.725 13.9616 285.725 15.5216C285.725 17.0393 284.502 18.178 282.942 18.178H273.159V24.6717H284.67C286.231 24.6717 287.453 25.9367 287.453 27.4968C287.453 29.0151 286.231 30.2801 284.67 30.2801L270.334 30.2798Z" fill="white"/>
<path d="M284.542 6.3666C282.982 6.3666 281.717 5.10158 281.717 3.54156C281.717 2.02383 282.982 0.758789 284.542 0.758789C286.06 0.758789 287.325 2.02383 287.325 3.54156C287.325 5.10165 286.06 6.3666 284.542 6.3666Z" fill="white"/>
<path d="M318.459 10.1619C318.459 4.42768 314.537 0.758789 308.507 0.758789H299.442C297.923 0.758789 296.658 2.02383 296.658 3.54156V27.492C296.658 29.0104 297.923 30.2754 299.442 30.2754C301.002 30.2754 302.267 29.0104 302.267 27.492V19.9024H308.381L309.646 21.9263C310.447 23.2336 312.176 23.6133 313.483 22.7698C316.055 21.1251 313.989 18.4264 313.989 18.4264C316.899 16.7822 318.459 13.7887 318.459 10.1619ZM308.381 15.0537H302.267V6.19826H308.507C311.417 6.19826 312.85 7.92766 312.85 10.4994C312.85 12.8606 311.712 15.0537 308.381 15.0537Z" fill="white"/>
<path d="M316.565 30.2344C315.046 30.2344 313.781 28.9693 313.781 27.4516C313.781 25.8909 315.046 24.626 316.565 24.626C318.125 24.626 319.347 25.891 319.347 27.4516C319.347 28.9693 318.125 30.2344 316.565 30.2344Z" fill="white"/>
</svg>
